<mxfile host="app.diagrams.net" modified="2022-08-20T23:47:22.126Z" agent="5.0 (Windows NT 10.0; Win64; x64) AppleWebKit/537.36 (KHTML, like Gecko) Chrome/104.0.0.0 Safari/537.36" etag="stvhEv2Go3vPgtSEaAFB" version="20.2.5" type="github">
  <diagram id="C5RBs43oDa-KdzZeNtuy" name="Page-1">
    <mxGraphModel dx="868" dy="1619" grid="1" gridSize="10" guides="1" tooltips="1" connect="1" arrows="1" fold="1" page="1" pageScale="1" pageWidth="827" pageHeight="1169" math="0" shadow="0">
      <root>
        <mxCell id="WIyWlLk6GJQsqaUBKTNV-0" />
        <mxCell id="WIyWlLk6GJQsqaUBKTNV-1" parent="WIyWlLk6GJQsqaUBKTNV-0" />
        <mxCell id="XWjfbE7Dgp5xqqSiEyl4-1" value="Start" style="ellipse;whiteSpace=wrap;html=1;" vertex="1" parent="WIyWlLk6GJQsqaUBKTNV-1">
          <mxGeometry x="277.5" y="80" width="120" height="50" as="geometry" />
        </mxCell>
        <mxCell id="XWjfbE7Dgp5xqqSiEyl4-2" value="" style="rounded=0;html=1;jettySize=auto;orthogonalLoop=1;fontSize=11;endArrow=block;endFill=0;endSize=8;strokeWidth=1;shadow=0;labelBackgroundColor=none;edgeStyle=orthogonalEdgeStyle;" edge="1" parent="WIyWlLk6GJQsqaUBKTNV-1">
          <mxGeometry relative="1" as="geometry">
            <mxPoint x="337" y="130" as="sourcePoint" />
            <mxPoint x="337" y="180" as="targetPoint" />
          </mxGeometry>
        </mxCell>
        <mxCell id="XWjfbE7Dgp5xqqSiEyl4-3" value="Read Number" style="shape=parallelogram;perimeter=parallelogramPerimeter;whiteSpace=wrap;html=1;fixedSize=1;" vertex="1" parent="WIyWlLk6GJQsqaUBKTNV-1">
          <mxGeometry x="270" y="180" width="135" height="40" as="geometry" />
        </mxCell>
        <mxCell id="XWjfbE7Dgp5xqqSiEyl4-4" value="" style="rounded=0;html=1;jettySize=auto;orthogonalLoop=1;fontSize=11;endArrow=block;endFill=0;endSize=8;strokeWidth=1;shadow=0;labelBackgroundColor=none;edgeStyle=orthogonalEdgeStyle;" edge="1" parent="WIyWlLk6GJQsqaUBKTNV-1">
          <mxGeometry relative="1" as="geometry">
            <mxPoint x="337.5" y="220" as="sourcePoint" />
            <mxPoint x="337.5" y="270" as="targetPoint" />
          </mxGeometry>
        </mxCell>
        <mxCell id="XWjfbE7Dgp5xqqSiEyl4-5" value="Sum =0, i =1" style="rounded=0;whiteSpace=wrap;html=1;" vertex="1" parent="WIyWlLk6GJQsqaUBKTNV-1">
          <mxGeometry x="277.5" y="270" width="120" height="40" as="geometry" />
        </mxCell>
        <mxCell id="XWjfbE7Dgp5xqqSiEyl4-6" value="" style="rounded=0;html=1;jettySize=auto;orthogonalLoop=1;fontSize=11;endArrow=block;endFill=0;endSize=8;strokeWidth=1;shadow=0;labelBackgroundColor=none;edgeStyle=orthogonalEdgeStyle;" edge="1" parent="WIyWlLk6GJQsqaUBKTNV-1">
          <mxGeometry relative="1" as="geometry">
            <mxPoint x="336" y="310" as="sourcePoint" />
            <mxPoint x="336" y="360" as="targetPoint" />
          </mxGeometry>
        </mxCell>
        <mxCell id="XWjfbE7Dgp5xqqSiEyl4-14" value="" style="edgeStyle=orthogonalEdgeStyle;rounded=0;orthogonalLoop=1;jettySize=auto;html=1;" edge="1" parent="WIyWlLk6GJQsqaUBKTNV-1" source="XWjfbE7Dgp5xqqSiEyl4-7" target="XWjfbE7Dgp5xqqSiEyl4-13">
          <mxGeometry relative="1" as="geometry" />
        </mxCell>
        <mxCell id="XWjfbE7Dgp5xqqSiEyl4-7" value="i &amp;lt;= number ?" style="rhombus;whiteSpace=wrap;html=1;shadow=0;fontFamily=Helvetica;fontSize=12;align=center;strokeWidth=1;spacing=6;spacingTop=-4;" vertex="1" parent="WIyWlLk6GJQsqaUBKTNV-1">
          <mxGeometry x="277.5" y="360" width="120" height="70" as="geometry" />
        </mxCell>
        <mxCell id="XWjfbE7Dgp5xqqSiEyl4-8" value="" style="rounded=0;html=1;jettySize=auto;orthogonalLoop=1;fontSize=11;endArrow=block;endFill=0;endSize=8;strokeWidth=1;shadow=0;labelBackgroundColor=none;edgeStyle=orthogonalEdgeStyle;" edge="1" parent="WIyWlLk6GJQsqaUBKTNV-1">
          <mxGeometry relative="1" as="geometry">
            <mxPoint x="337" y="430" as="sourcePoint" />
            <mxPoint x="337" y="480" as="targetPoint" />
          </mxGeometry>
        </mxCell>
        <mxCell id="XWjfbE7Dgp5xqqSiEyl4-9" value="Sum = Sum + (i * i)" style="rounded=0;whiteSpace=wrap;html=1;" vertex="1" parent="WIyWlLk6GJQsqaUBKTNV-1">
          <mxGeometry x="277.5" y="480" width="120" height="40" as="geometry" />
        </mxCell>
        <mxCell id="XWjfbE7Dgp5xqqSiEyl4-17" value="" style="edgeStyle=orthogonalEdgeStyle;rounded=0;orthogonalLoop=1;jettySize=auto;html=1;" edge="1" parent="WIyWlLk6GJQsqaUBKTNV-1" source="XWjfbE7Dgp5xqqSiEyl4-13">
          <mxGeometry relative="1" as="geometry">
            <mxPoint x="580" y="395" as="targetPoint" />
          </mxGeometry>
        </mxCell>
        <mxCell id="XWjfbE7Dgp5xqqSiEyl4-13" value="Print" style="whiteSpace=wrap;html=1;shadow=0;strokeWidth=1;spacing=6;spacingTop=-4;" vertex="1" parent="WIyWlLk6GJQsqaUBKTNV-1">
          <mxGeometry x="437.5" y="377.5" width="90" height="35" as="geometry" />
        </mxCell>
        <mxCell id="XWjfbE7Dgp5xqqSiEyl4-15" value="Sum" style="text;html=1;strokeColor=none;fillColor=none;align=center;verticalAlign=middle;whiteSpace=wrap;rounded=0;" vertex="1" parent="WIyWlLk6GJQsqaUBKTNV-1">
          <mxGeometry x="452.5" y="412.5" width="60" height="30" as="geometry" />
        </mxCell>
        <mxCell id="XWjfbE7Dgp5xqqSiEyl4-16" value="Stop" style="ellipse;whiteSpace=wrap;html=1;shadow=0;strokeWidth=1;spacing=6;spacingTop=-4;" vertex="1" parent="WIyWlLk6GJQsqaUBKTNV-1">
          <mxGeometry x="580" y="375" width="87.5" height="40" as="geometry" />
        </mxCell>
        <mxCell id="XWjfbE7Dgp5xqqSiEyl4-18" value="Yes" style="text;html=1;strokeColor=none;fillColor=none;align=center;verticalAlign=middle;whiteSpace=wrap;rounded=0;" vertex="1" parent="WIyWlLk6GJQsqaUBKTNV-1">
          <mxGeometry x="320" y="430" width="60" height="30" as="geometry" />
        </mxCell>
        <mxCell id="XWjfbE7Dgp5xqqSiEyl4-19" value="No" style="text;html=1;strokeColor=none;fillColor=none;align=center;verticalAlign=middle;whiteSpace=wrap;rounded=0;" vertex="1" parent="WIyWlLk6GJQsqaUBKTNV-1">
          <mxGeometry x="384" y="367" width="60" height="30" as="geometry" />
        </mxCell>
        <mxCell id="XWjfbE7Dgp5xqqSiEyl4-21" value="" style="rounded=0;html=1;jettySize=auto;orthogonalLoop=1;fontSize=11;endArrow=block;endFill=0;endSize=8;strokeWidth=1;shadow=0;labelBackgroundColor=none;edgeStyle=orthogonalEdgeStyle;entryX=0;entryY=0.5;entryDx=0;entryDy=0;" edge="1" parent="WIyWlLk6GJQsqaUBKTNV-1" target="XWjfbE7Dgp5xqqSiEyl4-7">
          <mxGeometry relative="1" as="geometry">
            <mxPoint x="337" y="520" as="sourcePoint" />
            <mxPoint x="200" y="400" as="targetPoint" />
            <Array as="points">
              <mxPoint x="337" y="560" />
              <mxPoint x="200" y="560" />
              <mxPoint x="200" y="395" />
            </Array>
          </mxGeometry>
        </mxCell>
        <mxCell id="XWjfbE7Dgp5xqqSiEyl4-23" value="&lt;h1&gt;Flowchart of a program to sum the square of numbers&lt;/h1&gt;&lt;p&gt;&lt;br&gt;&lt;/p&gt;" style="text;html=1;strokeColor=none;fillColor=none;spacing=5;spacingTop=-20;whiteSpace=wrap;overflow=hidden;rounded=0;" vertex="1" parent="WIyWlLk6GJQsqaUBKTNV-1">
          <mxGeometry x="70" y="-50" width="640" height="50" as="geometry" />
        </mxCell>
      </root>
    </mxGraphModel>
  </diagram>
</mxfile>
